HIERARCHY
ROOT Hips
{
	OFFSET 0.000000 71.427986 0.000000
	CHANNELS 6 Xposition Yposition Zposition Xrotation Yrotation Zrotation
	JOINT Pelvis
	{
		OFFSET 0.000000 0.000000 0.000000
		CHANNELS 3 Xrotation Yrotation Zrotation
		JOINT LeftUpLeg
		{
			OFFSET 6.797100 -2.508499 -1.318700
			CHANNELS 3 Xrotation Yrotation Zrotation
			JOINT LeftLeg
			{
				OFFSET 0.069008 -29.241863 0.690200
				CHANNELS 3 Xrotation Yrotation Zrotation
				JOINT LeftFoot
				{
					OFFSET -0.069008 -29.568123 -0.266800
					CHANNELS 3 Xrotation Yrotation Zrotation
					JOINT LeftToeBase
					{
						OFFSET 3.145500 -8.631000 16.059900
						CHANNELS 3 Xrotation Yrotation Zrotation
						End Site
						{
							OFFSET 0.000000 18.501587 0.000000
						}
					}
				}
			}
			JOINT Left_ShortSleeve
			{
				OFFSET 0.265923 -10.480953 1.153800
				CHANNELS 3 Xrotation Yrotation Zrotation
				End Site
				{
					OFFSET 1.725763 19.823879 0.000000
				}
			}
		}
		JOINT RightUpLeg
		{
			OFFSET -6.797100 -2.508499 -1.318700
			CHANNELS 3 Xrotation Yrotation Zrotation
			JOINT RightLeg
			{
				OFFSET -0.082453 -29.241932 0.688000
				CHANNELS 3 Xrotation Yrotation Zrotation
				JOINT RightFoot
				{
					OFFSET 0.082453 -29.568058 -0.264600
					CHANNELS 3 Xrotation Yrotation Zrotation
					JOINT RightToeBase
					{
						OFFSET -3.115300 -8.682800 16.113400
						CHANNELS 3 Xrotation Yrotation Zrotation
						End Site
						{
							OFFSET 0.000000 18.567114 0.000000
						}
					}
				}
			}
			JOINT Right_ShortSleeve
			{
				OFFSET -0.265923 -10.480953 1.153800
				CHANNELS 3 Xrotation Yrotation Zrotation
				End Site
				{
					OFFSET -1.725766 19.823910 0.000000
				}
			}
		}
	}
	JOINT Spine
	{
		OFFSET 0.000000 13.368103 0.470500
		CHANNELS 3 Xrotation Yrotation Zrotation
		JOINT Spine1
		{
			OFFSET 0.147000 13.837402 0.538800
			CHANNELS 3 Xrotation Yrotation Zrotation
			JOINT Spine2
			{
				OFFSET 0.168000 16.242897 -1.435500
				CHANNELS 3 Xrotation Yrotation Zrotation
				JOINT Neck
				{
					OFFSET 0.217200 18.631500 -1.679100
					CHANNELS 3 Xrotation Yrotation Zrotation
					JOINT Head
					{
						OFFSET 0.000000 6.599396 1.385900
						CHANNELS 3 Xrotation Yrotation Zrotation
						JOINT Hat
						{
							OFFSET -0.532200 27.220596 -10.096100
							CHANNELS 3 Xrotation Yrotation Zrotation
							End Site
							{
								OFFSET 0.000000 22.029861 0.000000
							}
						}
						JOINT HairD
						{
							OFFSET -10.777400 17.437393 -1.325900
							CHANNELS 3 Xrotation Yrotation Zrotation
							JOINT HairD1
							{
								OFFSET -3.290299 -11.051193 1.062200
								CHANNELS 3 Xrotation Yrotation Zrotation
								End Site
								{
									OFFSET 0.000000 11.579437 0.000000
								}
							}
						}
						JOINT HairB
						{
							OFFSET -10.777400 17.437393 1.467900
							CHANNELS 3 Xrotation Yrotation Zrotation
							JOINT HairB1
							{
								OFFSET -1.561200 -12.956299 3.590200
								CHANNELS 3 Xrotation Yrotation Zrotation
								End Site
								{
									OFFSET 0.000000 13.534866 0.000000
								}
							}
						}
						JOINT HairA
						{
							OFFSET 9.713100 17.437393 1.467900
							CHANNELS 3 Xrotation Yrotation Zrotation
							JOINT HairA1
							{
								OFFSET 1.561200 -12.956299 3.590200
								CHANNELS 3 Xrotation Yrotation Zrotation
								End Site
								{
									OFFSET 0.000000 13.534866 0.000000
								}
							}
						}
						JOINT HairC
						{
							OFFSET 9.713100 17.437393 -1.325900
							CHANNELS 3 Xrotation Yrotation Zrotation
							JOINT HairC1
							{
								OFFSET 3.290300 -11.051193 1.062200
								CHANNELS 3 Xrotation Yrotation Zrotation
								End Site
								{
									OFFSET 0.000000 11.579437 0.000000
								}
							}
						}
					}
				}
				JOINT LeftShoulder
				{
					OFFSET 5.101800 15.108002 -2.763700
					CHANNELS 3 Xrotation Yrotation Zrotation
					JOINT LeftArm
					{
						OFFSET 9.825497 2.506317 -1.597400
						CHANNELS 3 Xrotation Yrotation Zrotation
						JOINT LeftForeArm
						{
							OFFSET 21.966244 0.000000 0.000000
							CHANNELS 3 Xrotation Yrotation Zrotation
							JOINT LeftHand
							{
								OFFSET 33.879036 0.000000 0.000000
								CHANNELS 3 Xrotation Yrotation Zrotation
								JOINT LeftHandThumb1
								{
									OFFSET 6.715286 -2.359680 3.363841
									CHANNELS 3 Xrotation Yrotation Zrotation
									JOINT LeftHandThumb2
									{
										OFFSET 2.507072 -1.447464 1.447461
										CHANNELS 3 Xrotation Yrotation Zrotation
										JOINT LeftHandThumb3
										{
											OFFSET 2.898338 -1.673355 1.673357
											CHANNELS 3 Xrotation Yrotation Zrotation
											End Site
											{
												OFFSET -0.295959 3.727692 -0.131651
											}
										}
									}
								}
								JOINT LeftHandIndex1
								{
									OFFSET 14.190811 -0.254547 3.840278
									CHANNELS 3 Xrotation Yrotation Zrotation
									JOINT LeftHandIndex2
									{
										OFFSET 3.551727 0.000000 -0.000000
										CHANNELS 3 Xrotation Yrotation Zrotation
										JOINT LeftHandIndex3
										{
											OFFSET 2.894196 0.000000 0.000000
											CHANNELS 3 Xrotation Yrotation Zrotation
											End Site
											{
												OFFSET -1.000603 2.690872 0.366626
											}
										}
									}
								}
								JOINT LeftHandMiddle1
								{
									OFFSET 13.776489 0.000000 0.000000
									CHANNELS 3 Xrotation Yrotation Zrotation
									JOINT LeftHandMiddle2
									{
										OFFSET 3.438232 0.000000 0.000000
										CHANNELS 3 Xrotation Yrotation Zrotation
										JOINT LeftHandMiddle3
										{
											OFFSET 3.691551 0.000000 0.000000
											CHANNELS 3 Xrotation Yrotation Zrotation
											End Site
											{
												OFFSET -1.082298 3.499527 0.457670
											}
										}
									}
								}
								JOINT LeftHandRing1
								{
									OFFSET 13.966164 -0.268127 -3.067488
									CHANNELS 3 Xrotation Yrotation Zrotation
									JOINT LeftHandRing2
									{
										OFFSET 3.162567 0.000000 0.000000
										CHANNELS 3 Xrotation Yrotation Zrotation
										JOINT LeftHandRing3
										{
											OFFSET 3.324348 0.000000 0.000000
											CHANNELS 3 Xrotation Yrotation Zrotation
											End Site
											{
												OFFSET -0.861900 3.184998 0.405154
											}
										}
									}
								}
								JOINT LeftHandPinky1
								{
									OFFSET 13.131393 -0.168503 -5.746925
									CHANNELS 3 Xrotation Yrotation Zrotation
									JOINT LeftHandPinky2
									{
										OFFSET 2.849182 0.000000 0.000000
										CHANNELS 3 Xrotation Yrotation Zrotation
										JOINT LeftHandPinky3
										{
											OFFSET 2.805038 0.000000 0.000000
											CHANNELS 3 Xrotation Yrotation Zrotation
											End Site
											{
												OFFSET -0.882500 2.642609 0.325652
											}
										}
									}
								}
							}
							JOINT Left_Sleeve
							{
								OFFSET 6.592125 -0.646545 0.805568
								CHANNELS 3 Xrotation Yrotation Zrotation
								End Site
								{
									OFFSET -0.000179 20.275787 -0.000000
								}
							}
						}
					}
				}
				JOINT RightShoulder
				{
					OFFSET -5.731700 15.108002 -2.763700
					CHANNELS 3 Xrotation Yrotation Zrotation
					JOINT RightArm
					{
						OFFSET -9.825497 2.506317 -1.597400
						CHANNELS 3 Xrotation Yrotation Zrotation
						JOINT RightForeArm
						{
							OFFSET -21.966242 0.000000 0.000000
							CHANNELS 3 Xrotation Yrotation Zrotation
							JOINT RightHand
							{
								OFFSET -33.879032 0.000000 0.000000
								CHANNELS 3 Xrotation Yrotation Zrotation
								JOINT RightHandThumb1
								{
									OFFSET -6.715286 -2.359680 3.363841
									CHANNELS 3 Xrotation Yrotation Zrotation
									JOINT RightHandThumb2
									{
										OFFSET -2.507072 -1.447464 1.447461
										CHANNELS 3 Xrotation Yrotation Zrotation
										JOINT RightHandThumb3
										{
											OFFSET -2.898338 -1.673355 1.673357
											CHANNELS 3 Xrotation Yrotation Zrotation
											End Site
											{
												OFFSET 0.295959 3.727692 -0.131651
											}
										}
									}
								}
								JOINT RightHandIndex1
								{
									OFFSET -14.190811 -0.254547 3.840278
									CHANNELS 3 Xrotation Yrotation Zrotation
									JOINT RightHandIndex2
									{
										OFFSET -3.551727 0.000000 -0.000000
										CHANNELS 3 Xrotation Yrotation Zrotation
										JOINT RightHandIndex3
										{
											OFFSET -2.894196 0.000000 0.000000
											CHANNELS 3 Xrotation Yrotation Zrotation
											End Site
											{
												OFFSET 1.000603 2.690872 0.366626
											}
										}
									}
								}
								JOINT RightHandMiddle1
								{
									OFFSET -13.776489 0.000000 0.000000
									CHANNELS 3 Xrotation Yrotation Zrotation
									JOINT RightHandMiddle2
									{
										OFFSET -3.438232 0.000000 0.000000
										CHANNELS 3 Xrotation Yrotation Zrotation
										JOINT RightHandMiddle3
										{
											OFFSET -3.691551 0.000000 0.000000
											CHANNELS 3 Xrotation Yrotation Zrotation
											End Site
											{
												OFFSET 1.082298 3.499527 0.457670
											}
										}
									}
								}
								JOINT RightHandRing1
								{
									OFFSET -13.966164 -0.268127 -3.067488
									CHANNELS 3 Xrotation Yrotation Zrotation
									JOINT RightHandRing2
									{
										OFFSET -3.162567 0.000000 0.000000
										CHANNELS 3 Xrotation Yrotation Zrotation
										JOINT RightHandRing3
										{
											OFFSET -3.324348 0.000000 0.000000
											CHANNELS 3 Xrotation Yrotation Zrotation
											End Site
											{
												OFFSET 0.861900 3.184998 0.405154
											}
										}
									}
								}
								JOINT RightHandPinky1
								{
									OFFSET -13.131393 -0.168503 -5.746925
									CHANNELS 3 Xrotation Yrotation Zrotation
									JOINT RightHandPinky2
									{
										OFFSET -2.849182 0.000000 0.000000
										CHANNELS 3 Xrotation Yrotation Zrotation
										JOINT RightHandPinky3
										{
											OFFSET -2.805038 0.000000 0.000000
											CHANNELS 3 Xrotation Yrotation Zrotation
											End Site
											{
												OFFSET 0.882500 2.642609 0.325652
											}
										}
									}
								}
							}
							JOINT Right_Sleeve
							{
								OFFSET -6.592125 -0.646545 0.805568
								CHANNELS 3 Xrotation Yrotation Zrotation
								End Site
								{
									OFFSET 0.000179 20.275787 -0.000000
								}
							}
						}
					}
				}
				JOINT Bind_Right_JacketString
				{
					OFFSET -3.534800 11.969597 7.200700
					CHANNELS 3 Xrotation Yrotation Zrotation
					JOINT Bind_Right_JacketString1
					{
						OFFSET -0.319900 -6.102600 2.794100
						CHANNELS 3 Xrotation Yrotation Zrotation
						End Site
						{
							OFFSET 0.000000 6.719452 0.000000
						}
					}
				}
				JOINT Bind_Left_JacketString
				{
					OFFSET 2.904800 11.969597 7.200700
					CHANNELS 3 Xrotation Yrotation Zrotation
					JOINT Bind_Left_JacketString1
					{
						OFFSET 0.364800 -5.904503 3.186800
						CHANNELS 3 Xrotation Yrotation Zrotation
						End Site
						{
							OFFSET 0.000000 6.719513 0.000000
						}
					}
				}
				JOINT HairE
				{
					OFFSET 5.915200 17.612701 -11.592200
					CHANNELS 3 Xrotation Yrotation Zrotation
					JOINT HairE1
					{
						OFFSET 0.289200 -7.171898 -1.284500
						CHANNELS 3 Xrotation Yrotation Zrotation
						End Site
						{
							OFFSET 0.000000 7.291756 0.000000
						}
					}
				}
				JOINT HairF
				{
					OFFSET -0.864800 17.612701 -11.592200
					CHANNELS 3 Xrotation Yrotation Zrotation
					JOINT HairF1
					{
						OFFSET 0.000000 -14.087097 -2.127501
						CHANNELS 3 Xrotation Yrotation Zrotation
						End Site
						{
							OFFSET 0.000000 14.246841 0.000000
						}
					}
				}
				JOINT HairG
				{
					OFFSET -8.087700 17.612701 -11.592200
					CHANNELS 3 Xrotation Yrotation Zrotation
					JOINT HairG1
					{
						OFFSET -0.293600 -6.081398 -0.910100
						CHANNELS 3 Xrotation Yrotation Zrotation
						End Site
						{
							OFFSET 0.000000 6.156120 0.000000
						}
					}
				}
			}
		}
	}
	JOINT Pouch
	{
		OFFSET 0.000000 4.394501 10.847300
		CHANNELS 3 Xrotation Yrotation Zrotation
		End Site
		{
			OFFSET 0.000000 21.880577 0.000000
		}
	}
	JOINT Bag
	{
		OFFSET -13.229000 4.813004 -0.593300
		CHANNELS 3 Xrotation Yrotation Zrotation
		End Site
		{
			OFFSET 0.000000 21.880577 0.000000
		}
	}
	JOINT OccupyGuyFacialAnim_Joint
	{
		OFFSET 1.000000 -70.206398 -1.655000
		CHANNELS 3 Xrotation Yrotation Zrotation
		End Site
		{
			OFFSET 0.000000 21.880577 0.000000
		}
	}
}
MOTION
Frames: 4
Frame Time: 0.033333
-1.340405 43.921329 2.972609 103.665510 -60.802522 100.357103 0.000000 0.000000 0.000000 -96.258170 -4.331023 9.957718 111.148570 0.230001 -2.777524 -43.024345 -4.797220 -1.291658 -0.000000 -0.000000 -0.000000 -0.000002 -0.000000 0.000000 -93.159327 -0.978066 -4.601047 111.161909 3.201884 -1.282918 -45.674018 4.795581 -1.237566 0.000000 -0.000000 -0.000000 -0.000004 -0.000001 -0.000000 12.976390 3.667905 4.445992 8.698509 -0.401116 -2.103418 8.665959 1.071807 4.752773 -6.474674 1.346710 -15.142277 -41.074473 -7.557213 6.003355 -0.000000 0.000000 -0.000000 -0.000000 0.000000 -0.000000 -0.000000 0.000000 -0.000000 -0.000000 0.000000 0.000000 -0.000000 0.000000 -0.000000 -0.000000 0.000000 0.000000 -0.000000 0.000000 -0.000000 -0.000000 0.000000 -0.000000 -0.000000 0.000000 -0.000000 11.078327 -9.302217 19.920706 -90.169132 -16.880042 -39.037154 6.942614 -45.023258 8.876824 -58.635432 -2.245933 7.331384 17.551636 -5.699243 -12.932257 10.850520 26.127709 8.644808 0.000004 -0.000002 0.000001 13.980931 1.201523 -55.004353 0.381462 1.169590 -65.441914 0.000001 -0.000001 0.000003 7.504747 1.174355 -63.778510 1.808001 1.478085 -64.568053 -0.000000 -0.000001 0.000001 8.574664 2.177870 -75.148965 -0.201115 0.998924 -57.855152 -0.000002 0.000000 -0.000001 10.030125 13.637027 -84.750244 0.869747 0.055086 -64.595087 0.000002 0.000001 -0.000002 -0.000001 0.000000 -0.000000 21.033745 7.153229 5.232307 -41.455936 -8.399812 40.679924 -13.041240 31.153814 5.436714 -10.640886 11.763030 -2.053753 11.241451 4.342114 -26.319108 -3.086677 -28.811172 7.174528 0.000001 -0.000001 0.000002 8.515043 -5.812374 -4.647448 -2.481644 -2.426937 14.088884 -0.000001 -0.000001 -0.000002 -4.036571 -5.168817 -0.220269 -1.524193 -5.328010 18.807121 0.000001 0.000000 -0.000003 -1.232876 -9.243468 2.470535 3.275387 -4.600968 28.462086 0.000001 -0.000000 -0.000001 -13.125832 -10.839429 4.500644 9.617261 -4.436671 31.270874 -0.000000 0.000000 0.000002 -0.000000 0.000001 0.000002 0.000001 0.000000 -0.000000 -0.000000 -0.000000 -0.000000 0.000001 0.000000 0.000000 0.000001 0.000000 0.000000 0.000001 0.000000 -0.000000 -0.000000 -0.000000 -0.000000 0.000001 0.000000 0.000000 0.000001 0.000000 0.000000 0.000001 0.000000 -0.000000 -0.000000 -0.000000 -0.000000 0.000000 0.000000 0.000000 0.000000 0.000000 0.000000 0.000000 0.000000 0.000000 
-1.268600 43.648182 3.588576 108.093911 -59.904468 104.930714 -0.000000 0.000001 0.000000 -96.774751 -3.652468 10.566794 112.051917 1.456278 -2.674712 -43.705960 -4.084249 -1.326110 -0.000000 -0.000000 -0.000000 -0.000003 0.000000 -0.000000 -95.213547 -0.913167 -5.992206 113.352768 1.962300 -1.364225 -42.384373 1.318255 0.524334 0.000000 0.000001 0.000000 -0.000001 0.000001 -0.000000 12.759587 3.933598 4.425828 8.604020 -0.064270 -2.090155 8.557284 1.401558 4.707210 -6.086937 2.135577 -14.803858 -41.393590 -6.165357 5.282091 -0.000000 0.000000 -0.000000 -0.000000 0.000000 -0.000000 -0.000000 0.000000 -0.000000 -0.000000 0.000000 -0.000000 -0.000000 0.000000 0.000000 -0.000000 0.000000 -0.000000 -0.000000 0.000000 0.000000 -0.000000 0.000000 -0.000000 -0.000000 0.000000 -0.000000 10.747841 -9.011066 19.442383 -89.144767 -16.283793 -38.061082 6.734256 -44.896524 8.722261 -58.662965 -2.154737 7.235515 17.551633 -5.699247 -12.932258 10.850519 26.127705 8.644808 -0.000001 -0.000000 0.000001 13.980931 1.201523 -55.004350 0.381460 1.169587 -65.441914 0.000002 0.000001 -0.000004 7.504748 1.174355 -63.778510 1.808001 1.478085 -64.568053 -0.000000 0.000000 -0.000001 8.574664 2.177871 -75.148965 -0.201114 0.998925 -57.855152 -0.000000 -0.000000 -0.000001 10.030123 13.637028 -84.750244 0.869746 0.055086 -64.595087 0.000003 0.000000 0.000003 0.000003 -0.000000 -0.000000 21.523418 6.729967 5.898644 -42.755529 -9.883000 39.964813 -12.102132 30.352975 4.877027 -9.185489 11.693653 -1.607021 11.964562 3.919559 -26.705908 -3.182749 -28.652886 7.164664 0.000002 0.000000 0.000001 8.518818 -5.862344 -5.511728 -2.375079 -2.432923 13.358954 0.000000 0.000000 0.000004 -4.086034 -5.010857 -1.314367 -1.594350 -5.286075 17.491752 0.000001 0.000001 -0.000006 -0.823142 -9.118898 1.165842 3.278619 -4.620367 27.015229 -0.000002 -0.000002 -0.000002 -12.440223 -10.339620 2.555663 9.624100 -4.474366 29.320161 -0.000001 0.000001 0.000001 0.000001 -0.000001 -0.000000 0.000000 0.000001 -0.000001 -0.000001 0.000000 -0.000000 0.000000 0.000001 -0.000001 0.000000 0.000001 -0.000001 0.000000 0.000001 -0.000001 -0.000001 0.000000 0.000000 0.000000 0.000001 -0.000001 0.000000 0.000001 -0.000001 0.000000 0.000001 -0.000001 -0.000001 0.000000 0.000000 -0.000000 0.000001 0.000000 -0.000000 0.000001 0.000000 -0.000000 0.000001 0.000000 
-1.192219 43.344772 4.132619 111.924295 -58.863677 108.921095 0.000001 0.000000 0.000000 -97.423059 -3.050191 11.166895 112.957115 2.628541 -2.576323 -44.310661 -3.445532 -1.422886 0.000000 -0.000000 -0.000000 -0.000001 0.000000 0.000000 -97.362646 0.949561 -7.340642 115.755560 0.605333 -0.570177 -38.250412 -1.094127 3.233199 0.000000 -0.000000 0.000000 0.000003 0.000000 0.000002 12.567429 4.175616 4.380799 8.493240 0.269319 -2.078396 8.433146 1.726719 4.661080 -5.720931 2.870394 -14.544420 -41.634029 -4.898038 4.669562 0.000001 0.000000 -0.000000 0.000001 0.000000 -0.000000 0.000001 0.000000 -0.000000 0.000001 0.000000 -0.000000 0.000000 0.000000 -0.000000 0.000001 0.000000 -0.000000 0.000000 0.000000 -0.000000 0.000001 0.000000 -0.000000 0.000001 0.000000 -0.000000 10.429661 -8.724420 18.970398 -88.175372 -15.832163 -37.199379 6.524683 -44.773181 8.567823 -58.679262 -2.070194 7.216030 17.551634 -5.699243 -12.932256 10.850520 26.127709 8.644808 -0.000000 0.000002 -0.000001 13.980929 1.201522 -55.004353 0.381462 1.169589 -65.441921 -0.000000 0.000000 -0.000002 7.504746 1.174356 -63.778510 1.808000 1.478083 -64.568053 0.000000 0.000000 0.000002 8.574662 2.177870 -75.148965 -0.201114 0.998924 -57.855152 -0.000001 0.000000 -0.000002 10.030121 13.637024 -84.750244 0.869746 0.055087 -64.595093 -0.000000 0.000001 -0.000002 0.000002 0.000001 -0.000000 21.205210 6.710532 6.415356 -43.622943 -11.980234 39.302094 -11.313733 29.116683 4.435041 -7.327752 11.855637 -0.729207 12.611778 3.514314 -26.979920 -3.260996 -28.530757 7.157540 -0.000001 0.000001 0.000002 8.490186 -5.884288 -6.181011 -2.282065 -2.440830 12.757998 -0.000000 -0.000001 0.000004 -4.117085 -4.873305 -2.229219 -1.647373 -5.248302 16.350150 -0.000001 -0.000001 0.000001 -0.444996 -9.018583 -0.011667 3.285310 -4.639586 25.687582 -0.000002 -0.000001 -0.000000 -11.741893 -9.924928 0.749272 9.643645 -4.509428 27.460902 -0.000000 0.000001 -0.000001 0.000000 -0.000000 -0.000000 -0.000000 0.000000 -0.000000 -0.000002 -0.000000 -0.000000 -0.000000 0.000000 0.000001 -0.000000 0.000000 0.000001 -0.000000 0.000000 -0.000000 -0.000002 -0.000000 -0.000000 -0.000000 0.000000 0.000001 -0.000000 0.000000 0.000001 -0.000000 0.000000 -0.000000 -0.000002 -0.000000 -0.000000 0.000001 0.000000 0.000000 0.000001 0.000000 0.000000 0.000001 0.000000 0.000000 
-1.130623 43.027184 4.640057 115.338427 -57.738444 112.545590 0.000002 -0.000001 -0.000000 -98.087752 -2.462803 11.735322 113.858488 3.851005 -2.475125 -44.897815 -2.854920 -1.620056 -0.000000 -0.000000 -0.000000 0.000002 0.000000 -0.000000 -99.291860 4.324451 -8.107826 118.525939 -0.296082 0.323357 -33.622498 -2.244858 5.938465 -0.000001 -0.000000 0.000002 0.000001 -0.000000 -0.000001 12.384850 4.372721 4.295136 8.379958 0.592729 -2.074042 8.307418 2.040036 4.611117 -5.363816 3.589033 -14.322627 -41.836213 -3.682526 4.112399 0.000000 -0.000000 -0.000000 0.000000 -0.000000 -0.000000 0.000000 -0.000000 -0.000000 0.000000 -0.000000 -0.000000 -0.000000 0.000000 -0.000000 0.000000 -0.000000 -0.000000 -0.000000 0.000000 -0.000000 0.000000 -0.000000 -0.000000 0.000000 -0.000000 -0.000000 10.123593 -8.441032 18.508795 -87.256964 -15.421124 -36.405345 6.319760 -44.652276 8.416948 -58.693899 -1.988121 7.206509 17.551634 -5.699244 -12.932255 10.850519 26.127705 8.644809 0.000002 0.000001 0.000000 13.980931 1.201521 -55.004350 0.381464 1.169589 -65.441921 0.000003 0.000001 0.000002 7.504750 1.174355 -63.778510 1.808002 1.478087 -64.568053 0.000000 -0.000001 0.000004 8.574665 2.177870 -75.148958 -0.201113 0.998924 -57.855152 0.000001 -0.000000 -0.000002 10.030126 13.637027 -84.750237 0.869747 0.055087 -64.595087 -0.000001 0.000000 -0.000002 -0.000000 0.000001 0.000000 20.134759 7.156897 7.120812 -43.594966 -14.008586 38.490517 -10.392666 28.102241 4.010297 -5.876459 11.911740 0.339917 13.170053 3.135193 -27.132035 -3.319197 -28.448672 7.153109 -0.000001 0.000000 0.000001 8.426878 -5.874124 -6.632223 -2.204442 -2.449270 12.302936 -0.000001 0.000000 0.000007 -4.130144 -4.759802 -2.940702 -1.681484 -5.216243 15.408461 0.000001 -0.000000 -0.000001 -0.106959 -8.937159 -1.037956 3.294378 -4.658005 24.503693 -0.000001 0.000000 0.000000 -11.044845 -9.593563 -0.881093 9.674891 -4.540745 25.724164 -0.000001 0.000002 0.000001 0.000001 -0.000000 -0.000002 -0.000001 0.000000 -0.000001 -0.000001 0.000000 -0.000001 -0.000001 0.000000 -0.000001 -0.000001 0.000000 -0.000001 -0.000001 0.000000 -0.000001 -0.000001 0.000000 -0.000001 -0.000001 0.000000 -0.000001 -0.000001 0.000000 -0.000001 -0.000001 0.000000 -0.000001 -0.000001 0.000000 -0.000001 0.000002 -0.000001 -0.000000 0.000002 -0.000001 -0.000000 0.000002 -0.000001 -0.000000 
